HIERARCHY
ROOT Hips
{
	OFFSET 1.324476 86.935013 4.250773
	CHANNELS 6 Xposition Yposition Zposition Zrotation Yrotation Xrotation 
	JOINT Spine
	{
		OFFSET 0.000000 8.814246 -2.080107
		CHANNELS 3 Zrotation Yrotation Xrotation
		JOINT Spine1
		{
			OFFSET 0.000000 8.844141 -0.000000
			CHANNELS 3 Zrotation Yrotation Xrotation
			JOINT Spine2
			{
				OFFSET 0.000000 11.682268 0.000000
				CHANNELS 3 Zrotation Yrotation Xrotation
				JOINT Spine3
				{
					OFFSET 0.000000 11.746700 0.000000
					CHANNELS 3 Zrotation Yrotation Xrotation
					JOINT Neck
					{
						OFFSET -0.000000 17.658264 -0.000000
						CHANNELS 3 Zrotation Yrotation Xrotation
						JOINT Neck1
						{
							OFFSET 0.000000 5.101515 -0.000000
							CHANNELS 3 Zrotation Yrotation Xrotation
							JOINT Head
							{
								OFFSET 0.000000 5.101515 0.000000
								CHANNELS 3 Zrotation Yrotation Xrotation
								JOINT HeadEnd
								{
									OFFSET -0.000000 11.655085 0.000000
									CHANNELS 3 Zrotation Yrotation Xrotation
									End Site
									{
										OFFSET 0.000000 0.000000 0.000000
									}
								}
							}
						}
					}
					JOINT RightShoulder
					{
						OFFSET -2.625389 11.175210 -0.000000
						CHANNELS 3 Zrotation Yrotation Xrotation
						JOINT RightArm
						{
							OFFSET -0.000000 10.434715 -0.000000
							CHANNELS 3 Zrotation Yrotation Xrotation
							JOINT RightForeArm
							{
								OFFSET -0.000000 29.628420 -0.000000
								CHANNELS 3 Zrotation Yrotation Xrotation
								JOINT RightHand
								{
									OFFSET -0.000000 22.857611 -0.000000
									CHANNELS 3 Zrotation Yrotation Xrotation
									JOINT RightHandThumb1
									{
										OFFSET -2.867323 3.959563 2.944291
										CHANNELS 3 Zrotation Yrotation Xrotation
										JOINT RightHandThumb2
										{
											OFFSET -0.000000 3.350399 0.000000
											CHANNELS 3 Zrotation Yrotation Xrotation
											JOINT RightHandThumb3
											{
												OFFSET 0.000000 3.756509 -0.000000
												CHANNELS 3 Zrotation Yrotation Xrotation
												JOINT RightHandThumb4
												{
													OFFSET 0.000000 3.147345 -0.000000
													CHANNELS 3 Zrotation Yrotation Xrotation
													End Site
													{
														OFFSET 0.000000 0.000000 0.000000
													}
												}
											}
										}
									}
									JOINT RightHandIndex1
									{
										OFFSET -0.086752 10.030893 2.345280
										CHANNELS 3 Zrotation Yrotation Xrotation
										JOINT RightHandIndex2
										{
											OFFSET -0.000000 4.061090 -0.000000
											CHANNELS 3 Zrotation Yrotation Xrotation
											JOINT RightHandIndex3
											{
												OFFSET 0.000000 3.248873 0.000000
												CHANNELS 3 Zrotation Yrotation Xrotation
												JOINT RightHandIndex4
												{
													OFFSET 0.000000 2.639709 -0.000000
													CHANNELS 3 Zrotation Yrotation Xrotation
													End Site
													{
														OFFSET 0.000000 0.000000 0.000000
													}
												}
											}
										}
									}
									JOINT RightHandMiddle1
									{
										OFFSET 0.104102 9.502952 0.006768
										CHANNELS 3 Zrotation Yrotation Xrotation
										JOINT RightHandMiddle2
										{
											OFFSET 0.000000 4.568727 0.000000
											CHANNELS 3 Zrotation Yrotation Xrotation
											JOINT RightHandMiddle3
											{
												OFFSET 0.000000 3.654981 -0.000000
												CHANNELS 3 Zrotation Yrotation Xrotation
												JOINT RightHandMiddle4
												{
													OFFSET -0.000000 2.741236 -0.000000
													CHANNELS 3 Zrotation Yrotation Xrotation
													End Site
													{
														OFFSET 0.000000 0.000000 0.000000
													}
												}
											}
										}
									}
									JOINT RightHandRing1
									{
										OFFSET 0.086752 8.921708 -2.267442
										CHANNELS 3 Zrotation Yrotation Xrotation
										JOINT RightHandRing2
										{
											OFFSET -0.000000 4.061090 0.000000
											CHANNELS 3 Zrotation Yrotation Xrotation
											JOINT RightHandRing3
											{
												OFFSET -0.000000 3.654981 -0.000000
												CHANNELS 3 Zrotation Yrotation Xrotation
												JOINT RightHandRing4
												{
													OFFSET -0.000000 2.741236 -0.000000
													CHANNELS 3 Zrotation Yrotation Xrotation
													End Site
													{
														OFFSET 0.000000 0.000000 0.000000
													}
												}
											}
										}
									}
									JOINT RightHandPinky1
									{
										OFFSET -0.173504 7.976997 -4.467199
										CHANNELS 3 Zrotation Yrotation Xrotation
										JOINT RightHandPinky2
										{
											OFFSET -0.000000 3.350399 -0.000000
											CHANNELS 3 Zrotation Yrotation Xrotation
											JOINT RightHandPinky3
											{
												OFFSET -0.000000 2.842763 -0.000000
												CHANNELS 3 Zrotation Yrotation Xrotation
												JOINT RightHandPinky4
												{
													OFFSET 0.000000 2.639709 0.000000
													CHANNELS 3 Zrotation Yrotation Xrotation
													End Site
													{
														OFFSET 0.000000 0.000000 0.000000
													}
												}
											}
										}
									}
									JOINT RightForeArmEnd
									{
										OFFSET 0.000000 0.000000 0.000000
										CHANNELS 3 Zrotation Yrotation Xrotation
										End Site
										{
											OFFSET 0.000000 0.000000 0.000000
										}
									}
								}
								JOINT RightArmEnd
								{
									OFFSET 0.000000 0.000000 0.000000
									CHANNELS 3 Zrotation Yrotation Xrotation
									End Site
									{
										OFFSET 0.000000 0.000000 0.000000
									}
								}
							}
						}
					}
					JOINT LeftShoulder
					{
						OFFSET 2.625389 11.175210 -0.000000
						CHANNELS 3 Zrotation Yrotation Xrotation
						JOINT LeftArm
						{
							OFFSET 0.000000 10.813635 0.000000
							CHANNELS 3 Zrotation Yrotation Xrotation
							JOINT LeftForeArm
							{
								OFFSET 0.000000 28.724781 -0.000000
								CHANNELS 3 Zrotation Yrotation Xrotation
								JOINT LeftHand
								{
									OFFSET 0.644384 25.716167 -0.328871
									CHANNELS 3 Zrotation Yrotation Xrotation
									JOINT LeftHandThumb1
									{
										OFFSET 2.867323 3.959563 2.944291
										CHANNELS 3 Zrotation Yrotation Xrotation
										JOINT LeftHandThumb2
										{
											OFFSET -0.000000 3.350399 -0.000000
											CHANNELS 3 Zrotation Yrotation Xrotation
											JOINT LeftHandThumb3
											{
												OFFSET -0.000000 3.756509 0.000000
												CHANNELS 3 Zrotation Yrotation Xrotation
												JOINT LeftHandThumb4
												{
													OFFSET 0.000000 3.100000 -0.000000
													CHANNELS 3 Zrotation Yrotation Xrotation
													End Site
													{
														OFFSET 0.000000 0.000000 0.000000
													}
												}
											}
										}
									}
									JOINT LeftHandIndex1
									{
										OFFSET 0.086752 10.030893 2.345280
										CHANNELS 3 Zrotation Yrotation Xrotation
										JOINT LeftHandIndex2
										{
											OFFSET 0.000000 4.061090 -0.000000
											CHANNELS 3 Zrotation Yrotation Xrotation
											JOINT LeftHandIndex3
											{
												OFFSET 0.000000 3.248873 -0.000000
												CHANNELS 3 Zrotation Yrotation Xrotation
												JOINT LeftHandIndex4
												{
													OFFSET -0.000000 2.639709 0.000000
													CHANNELS 3 Zrotation Yrotation Xrotation
													End Site
													{
														OFFSET 0.000000 0.000000 0.000000
													}
												}
											}
										}
									}
									JOINT LeftHandMiddle1
									{
										OFFSET -0.104102 9.502952 0.006768
										CHANNELS 3 Zrotation Yrotation Xrotation
										JOINT LeftHandMiddle2
										{
											OFFSET 0.000000 4.568727 -0.000000
											CHANNELS 3 Zrotation Yrotation Xrotation
											JOINT LeftHandMiddle3
											{
												OFFSET 0.000000 3.654981 -0.000000
												CHANNELS 3 Zrotation Yrotation Xrotation
												JOINT LeftHandMiddle4
												{
													OFFSET -0.000000 2.741236 0.000000
													CHANNELS 3 Zrotation Yrotation Xrotation
													End Site
													{
														OFFSET 0.000000 0.000000 0.000000
													}
												}
											}
										}
									}
									JOINT LeftHandRing1
									{
										OFFSET -0.086752 8.921708 -2.267442
										CHANNELS 3 Zrotation Yrotation Xrotation
										JOINT LeftHandRing2
										{
											OFFSET 0.000000 4.061090 -0.000000
											CHANNELS 3 Zrotation Yrotation Xrotation
											JOINT LeftHandRing3
											{
												OFFSET 0.000000 3.654981 -0.000000
												CHANNELS 3 Zrotation Yrotation Xrotation
												JOINT LeftHandRing4
												{
													OFFSET 0.000000 2.741236 0.000000
													CHANNELS 3 Zrotation Yrotation Xrotation
													End Site
													{
														OFFSET 0.000000 0.000000 0.000000
													}
												}
											}
										}
									}
									JOINT LeftHandPinky1
									{
										OFFSET 0.173504 7.976997 -4.467199
										CHANNELS 3 Zrotation Yrotation Xrotation
										JOINT LeftHandPinky2
										{
											OFFSET 0.000000 3.350399 -0.000000
											CHANNELS 3 Zrotation Yrotation Xrotation
											JOINT LeftHandPinky3
											{
												OFFSET -0.000000 2.842763 0.000000
												CHANNELS 3 Zrotation Yrotation Xrotation
												JOINT LeftHandPinky4
												{
													OFFSET 0.000000 2.639709 -0.000000
													CHANNELS 3 Zrotation Yrotation Xrotation
													End Site
													{
														OFFSET 0.000000 0.000000 0.000000
													}
												}
											}
										}
									}
									JOINT LeftForeArmEnd
									{
										OFFSET 0.000000 0.000000 0.000000
										CHANNELS 3 Zrotation Yrotation Xrotation
										End Site
										{
											OFFSET 0.000000 0.000000 0.000000
										}
									}
								}
								JOINT LeftArmEnd
								{
									OFFSET 0.000000 0.000000 0.000000
									CHANNELS 3 Zrotation Yrotation Xrotation
									End Site
									{
										OFFSET 0.000000 0.000000 0.000000
									}
								}
							}
						}
					}
				}
			}
		}
	}
	JOINT RightUpLeg
	{
		OFFSET -11.289943 -0.000000 0.000000
		CHANNELS 3 Zrotation Yrotation Xrotation
		JOINT RightLeg
		{
			OFFSET -0.000000 -38.200325 -0.000000
			CHANNELS 3 Zrotation Yrotation Xrotation
			JOINT RightFoot
			{
				OFFSET -0.000000 -39.900856 0.000000
				CHANNELS 3 Zrotation Yrotation Xrotation
				JOINT RightToeBase
				{
					OFFSET 0.000000 0.000000 15.261641
					CHANNELS 3 Zrotation Yrotation Xrotation
					JOINT RightToeBaseEnd
					{
						OFFSET 0.000000 -0.000000 7.370709
						CHANNELS 3 Zrotation Yrotation Xrotation
						End Site
						{
							OFFSET 0.000000 0.000000 0.000000
						}
					}
				}
				JOINT RightLegEnd
				{
					OFFSET 0.000000 0.000000 0.000000
					CHANNELS 3 Zrotation Yrotation Xrotation
					End Site
					{
						OFFSET 0.000000 0.000000 0.000000
					}
				}
			}
			JOINT RightUpLegEnd
			{
				OFFSET 0.000000 0.000000 0.000000
				CHANNELS 3 Zrotation Yrotation Xrotation
				End Site
				{
					OFFSET 0.000000 0.000000 0.000000
				}
			}
		}
	}
	JOINT LeftUpLeg
	{
		OFFSET 11.315661 0.000000 -0.000000
		CHANNELS 3 Zrotation Yrotation Xrotation
		JOINT LeftLeg
		{
			OFFSET -0.000000 -38.200325 0.000000
			CHANNELS 3 Zrotation Yrotation Xrotation
			JOINT LeftFoot
			{
				OFFSET -0.000000 -39.900856 0.000000
				CHANNELS 3 Zrotation Yrotation Xrotation
				JOINT LeftToeBase
				{
					OFFSET -0.000000 0.000000 15.261641
					CHANNELS 3 Zrotation Yrotation Xrotation
					JOINT LeftToeBaseEnd
					{
						OFFSET -0.000000 0.000000 7.539996
						CHANNELS 3 Zrotation Yrotation Xrotation
						End Site
						{
							OFFSET 0.000000 0.000000 0.000000
						}
					}
				}
				JOINT LeftLegEnd
				{
					OFFSET 0.000000 0.000000 0.000000
					CHANNELS 3 Zrotation Yrotation Xrotation
					End Site
					{
						OFFSET 0.000000 0.000000 0.000000
					}
				}
			}
			JOINT LeftUpLegEnd
			{
				OFFSET 0.000000 0.000000 0.000000
				CHANNELS 3 Zrotation Yrotation Xrotation
				End Site
				{
					OFFSET 0.000000 0.000000 0.000000
				}
			}
		}
	}
}
MOTION
Frames: 4
Frame Time: 0.016667
1.324476 86.935013 4.250773 -0.005520 -0.000820 -8.454336 -9.502729 2.132209 2.603971 23.001511 -7.753243 4.944421 -18.496262 2.613333 4.758206 6.376277 -2.118146 -0.085917 6.159887 1.680514 13.992615 -3.575328 1.129971 -5.854432 -0.653064 3.409355 -25.356731 0.000000 0.000000 0.000000 100.776543 -0.800587 3.953491 53.386036 -44.861557 2.161399 1.646132 15.969770 37.149387 2.687206 15.016356 -12.363097 9.441423 -1.728222 40.406590 0.000000 0.000000 -23.039999 0.000000 0.000000 -15.999999 0.000000 0.000000 0.000000 10.604505 0.000000 -9.643257 7.423153 0.000000 0.000000 7.423153 0.000000 0.000000 0.000000 0.000000 0.000000 11.399842 0.000000 -11.609115 7.979890 0.000000 0.000000 7.979890 0.000000 0.000000 0.000000 0.000000 0.000000 13.540874 0.000000 -12.430757 9.478612 0.000000 0.000000 9.478612 0.000000 0.000000 0.000000 0.000000 0.000000 14.975492 0.000000 -15.047190 10.482848 0.000000 0.000000 10.482848 0.000000 0.000000 0.000000 0.000000 0.000000 0.000000 0.000000 0.000000 0.000000 0.000000 0.000000 -95.208824 0.461970 4.229309 -60.893921 44.539249 -2.663038 -1.430935 -6.288035 50.052158 -2.959770 -13.881307 -14.714699 -8.844158 1.663611 40.678265 0.000000 0.000000 -21.599998 0.000000 0.000000 -15.000001 0.000000 0.000000 0.000000 -12.041668 0.000000 -12.461102 -8.429168 0.000000 0.000000 -8.429168 0.000000 0.000000 0.000000 0.000000 0.000000 -12.888119 -0.000000 -13.922879 -9.021683 0.000000 0.000000 -9.021683 0.000000 0.000000 0.000000 0.000000 0.000000 -15.009265 0.000000 -13.607731 -10.506484 0.000000 0.000000 -10.506484 0.000000 0.000000 0.000000 0.000000 0.000000 -16.041897 -0.000000 -13.917473 -11.229328 0.000000 0.000000 -11.229328 0.000000 0.000000 0.000000 0.000000 0.000000 0.000000 0.000000 0.000000 0.000000 0.000000 0.000000 -3.804071 -6.247012 10.866132 -0.277084 -1.224930 12.755727 -0.078077 -16.042011 13.849055 -0.819756 -0.598396 -27.499289 0.000000 0.000000 0.000000 0.000000 0.000000 0.000000 0.000000 0.000000 0.000000 6.390305 4.668367 7.751981 0.242041 1.004258 13.551477 -0.124300 2.065108 14.313011 0.291276 0.297029 -28.654657 0.000000 0.000000 0.000000 0.000000 0.000000 0.000000 0.000000 0.000000 0.000000 
1.306395 86.341591 4.525035 -0.355388 -0.291139 -10.365792 -1.386127 0.158716 6.371333 8.719152 -2.353006 1.646420 -8.088528 1.844624 9.490210 2.408434 -0.963065 -0.888519 7.265701 1.942806 12.799936 -2.874379 1.748040 -5.291564 -0.402412 3.293208 -24.465988 0.000000 0.000000 0.000000 99.662300 -1.549034 2.937023 58.880474 -42.313206 -0.181353 1.187008 18.052238 37.326080 1.368425 15.627407 -10.224148 9.301191 -1.720096 40.307331 -0.000000 0.000039 -22.976992 0.000001 0.000048 -15.844501 0.000001 -0.000006 -0.000030 9.299546 0.260925 -9.122954 7.111103 -0.060106 0.064889 7.175691 -0.027653 0.017787 -0.000020 0.000005 -0.000035 10.382297 0.085655 -11.276205 7.595291 -0.040042 0.029367 7.572950 -0.009014 0.029673 0.000032 0.000103 -0.000003 12.819394 -0.154581 -12.230835 9.085343 0.055755 -0.030453 9.027614 0.007805 -0.023704 -0.000024 0.000273 0.000015 14.270540 -0.427717 -14.960968 10.154002 0.115798 0.045586 10.094868 -0.006648 0.007710 -0.000133 -0.000005 0.000025 0.000000 0.000000 0.000000 0.000000 0.000000 0.000000 -93.323830 0.503723 4.904865 -58.295654 47.664825 0.481880 -1.836026 -8.954194 49.926769 -1.797366 -15.203139 -16.372257 -8.742580 1.635033 40.620216 0.000006 0.000035 -21.423052 -0.000040 -0.000035 -14.641635 -0.000240 -0.000001 -0.000759 -11.832439 0.285983 -12.269006 -7.951726 -0.013754 0.175878 -7.973928 0.025948 0.153256 0.000003 -0.000106 -0.000021 -12.711296 0.129921 -13.199668 -8.694452 -0.027650 0.052595 -8.378129 0.004149 0.041098 -0.001023 -0.000059 -0.000020 -14.994887 -0.114236 -12.117203 -10.192466 0.054355 -0.100497 -10.189548 -0.007912 -0.070771 0.000478 0.000008 0.000006 -16.645952 -0.420136 -12.072675 -11.254812 0.070081 -0.243836 -11.240281 -0.039544 -0.187543 -0.000763 0.000003 -0.000038 0.000000 0.000000 0.000000 0.000000 0.000000 0.000000 -4.137316 -6.465639 12.062679 -0.189272 -0.910955 12.688117 -0.446112 -14.382846 15.866710 -0.382359 -0.896449 -28.355433 0.000000 0.000000 0.000000 0.000000 0.000000 0.000000 0.000000 0.000000 0.000000 6.709758 4.446529 10.693028 0.212494 0.980872 11.698562 -0.227334 4.516477 15.815990 0.419654 0.142233 -27.816071 0.000000 0.000000 0.000000 0.000000 0.000000 0.000000 0.000000 0.000000 0.000000 
1.269776 86.309753 4.642314 -0.438365 -0.281660 -10.577799 -1.327588 0.161078 6.541840 8.592168 -2.338157 1.613492 -7.819838 1.729195 9.614483 2.394022 -0.975530 -0.852402 7.303410 1.920924 12.959684 -2.886535 1.733161 -5.192149 -0.397025 3.310051 -24.490852 0.000000 0.000000 0.000000 99.497932 -1.499636 2.955322 59.336624 -41.819527 -0.409843 1.216820 18.260845 37.694927 0.730668 15.969406 -10.516315 9.228592 -1.713733 40.347588 -0.000006 0.000050 -22.764248 0.000010 0.000039 -15.708197 0.000012 0.000001 -0.000042 8.887584 0.250190 -8.973309 6.946767 -0.064185 0.089149 7.009097 -0.032582 0.035494 -0.000008 0.000015 -0.000026 9.956133 0.081125 -11.154411 7.421236 -0.041089 0.034783 7.388834 -0.010258 0.034084 0.000032 0.000080 -0.000013 12.380357 -0.147356 -12.236992 8.916411 0.056964 -0.038906 8.856623 0.009079 -0.029543 -0.000026 0.000402 0.000010 13.945673 -0.400962 -15.059451 10.005561 0.116516 0.026959 9.950400 -0.001512 -0.008434 -0.000200 -0.000000 0.000023 0.000000 0.000000 0.000000 0.000000 0.000000 0.000000 -93.296883 0.477666 4.859842 -58.427204 47.551941 0.399168 -1.825519 -8.752516 50.013313 -1.806728 -15.092298 -16.237198 -8.740676 1.630566 40.630054 0.000010 0.000041 -21.382875 -0.000046 -0.000035 -14.618033 -0.000186 0.000005 -0.000987 -11.781882 0.273779 -12.276590 -8.012100 -0.010223 0.180362 -8.041057 0.028236 0.154151 0.000014 -0.000078 -0.000020 -12.649613 0.124066 -13.243674 -8.741706 -0.025816 0.054457 -8.435325 0.004741 0.042061 -0.000954 -0.000063 -0.000042 -14.903472 -0.103599 -12.244695 -10.227893 0.050977 -0.102229 -10.216116 -0.008502 -0.073105 0.000488 0.000010 0.000008 -16.473585 -0.386476 -12.262786 -11.272499 0.061079 -0.250085 -11.240948 -0.043230 -0.195098 -0.000756 0.000009 -0.000048 0.000000 0.000000 0.000000 0.000000 0.000000 0.000000 -4.059650 -6.467991 12.367169 -0.185090 -0.921888 12.609448 -0.452192 -14.343632 15.783347 -0.380877 -0.878307 -28.354811 0.000000 0.000000 0.000000 0.000000 0.000000 0.000000 0.000000 0.000000 0.000000 6.899279 4.643724 11.088343 0.208832 0.976310 11.512244 -0.289287 4.280964 15.662089 0.420529 0.137706 -27.802172 0.000000 0.000000 0.000000 0.000000 0.000000 0.000000 0.000000 0.000000 0.000000 
1.246266 86.286880 4.767935 -0.485229 -0.321801 -10.727028 -1.287116 0.164338 6.657203 8.472447 -2.319072 1.480084 -7.574962 1.636608 9.801539 2.378817 -0.980943 -0.871375 7.331317 1.907237 12.962846 -2.889207 1.728116 -5.189993 -0.386383 3.315630 -24.476437 0.000000 0.000000 0.000000 99.434532 -1.467180 2.983115 59.670662 -41.540348 -0.593550 1.250745 18.462694 37.662132 0.386126 16.191975 -10.583015 9.195154 -1.709239 40.369495 -0.000007 0.000050 -22.662836 0.000009 0.000042 -15.642336 0.000012 0.000001 -0.000042 8.636321 0.244739 -8.883822 6.866660 -0.064698 0.098969 6.930258 -0.033427 0.041073 -0.000008 0.000013 -0.000025 9.698889 0.078800 -11.069703 7.344933 -0.040719 0.034978 7.307379 -0.010146 0.034047 0.000031 0.000070 -0.000013 12.107191 -0.143437 -12.220529 8.835831 0.055707 -0.037995 8.775800 0.008516 -0.028284 -0.000024 0.000495 0.000011 13.719478 -0.386244 -15.091857 9.925076 0.111948 0.036184 9.873048 -0.003698 -0.001059 -0.000279 -0.000001 0.000012 0.000000 0.000000 0.000000 0.000000 0.000000 0.000000 -93.300499 0.484447 4.844665 -58.412220 47.543633 0.365395 -1.816451 -8.626060 50.053402 -1.916786 -14.914091 -16.049059 -8.751980 1.628909 40.628975 0.000009 0.000042 -21.400482 -0.000047 -0.000036 -14.636343 -0.000146 0.000004 -0.001162 -11.826332 0.265200 -12.208618 -8.083064 -0.006879 0.187393 -8.118424 0.030764 0.157777 0.000013 -0.000072 -0.000020 -12.691607 0.121047 -13.207975 -8.797835 -0.024279 0.057681 -8.502802 0.005460 0.044282 -0.001020 -0.000065 -0.000059 -14.896263 -0.097235 -12.282772 -10.252852 0.048385 -0.105411 -10.239068 -0.009410 -0.076044 0.000575 0.000010 0.000008 -16.367176 -0.368531 -12.345428 -11.251817 0.054033 -0.258081 -11.224461 -0.047040 -0.203973 -0.000768 0.000009 -0.000049 0.000000 0.000000 0.000000 0.000000 0.000000 0.000000 -3.990508 -6.415777 12.640607 -0.182992 -0.930982 12.512166 -0.466860 -14.316158 15.685971 -0.389036 -0.865262 -28.307947 0.000000 0.000000 0.000000 0.000000 0.000000 0.000000 0.000000 0.000000 0.000000 7.016527 4.779113 11.410910 0.206410 0.973607 11.391729 -0.347237 4.212809 15.505963 0.418579 0.137266 -27.756660 0.000000 0.000000 0.000000 0.000000 0.000000 0.000000 0.000000 0.000000 0.000000 
